<?xml version="1.0" encoding="utf-8"?>
<!-- Generator: Adobe Illustrator 18.1.1, SVG Export Plug-In . SVG Version: 6.00 Build 0)  -->
<svg version="1.1" id="Layer_1" xmlns="http://www.w3.org/2000/svg" xmlns:xlink="http://www.w3.org/1999/xlink" x="0px" y="0px"
	 width="100px" height="100px" viewBox="0 0 100 100" enable-background="new 0 0 100 100" xml:space="preserve">
<circle fill="#FFFFFF" cx="50" cy="50" r="50"/>
<g>
	<g>
		<path fill="#808080" d="M62.3,31.6l5.8,5.8l-1.8,1.8l-2-2c-0.1-0.1-0.4-0.1-0.5,0c-0.1,0.1-0.1,0.4,0,0.5l2,2L64.4,41l-2-2
			c-0.1-0.1-0.4-0.1-0.5,0c-0.1,0.1-0.1,0.4,0,0.5l2,2l-1.6,1.6l-2-2c-0.1-0.1-0.4-0.1-0.5,0c-0.1,0.1-0.1,0.4,0,0.5l2,2l-1.6,1.6
			l-3.7-3.7c-0.1-0.1-0.4-0.1-0.5,0c-0.1,0.1-0.1,0.4,0,0.5l3.7,3.7l-2.3,2.3l-2-2c-0.1-0.1-0.4-0.1-0.5,0c-0.1,0.1-0.1,0.4,0,0.5
			l2,2l-0.4,0.4l1,1l11.5-11.5c0.5-0.5,0.5-1.4,0-2l-5.8-5.8c-0.6-0.5-1.4-0.5-2,0L49.9,42l1,1L62.3,31.6z"/>
		<path fill="#808080" d="M48.3,57.2l-2-2c-0.1-0.1-0.4-0.1-0.5,0c-0.1,0.1-0.1,0.4,0,0.5l2,2l-2.3,2.3l-3.7-3.7
			c-0.1-0.1-0.4-0.1-0.5,0c-0.1,0.1-0.1,0.4,0,0.5l3.7,3.7L43.5,62l-2-2c-0.1-0.1-0.4-0.1-0.5,0c-0.1,0.1-0.1,0.4,0,0.5l2,2
			l-1.6,1.6l-2-2c-0.1-0.1-0.4-0.1-0.5,0c-0.1,0.1-0.1,0.4,0,0.5l2,2L39.4,66l-2-2c-0.1-0.1-0.4-0.1-0.5,0c-0.1,0.1-0.1,0.4,0,0.5
			l2,2l-1.8,1.8l-5.8-5.8L42.9,51l-1-1L30.4,61.5c-0.5,0.5-0.5,1.4,0,2l5.8,5.8c0.5,0.5,1.4,0.5,2,0l11.5-11.5l-1-1L48.3,57.2z"/>
		<path fill="#808080" d="M69.7,68.5c-3.4-7.5-3.7-7.8-3.9-7.9l-30.2-30C35,30,34,30,33.3,30.6l-3.1,3.1c-0.6,0.6-0.6,1.6,0,2.3
			l30.2,30c0.1,0.1,0.4,0.4,8.2,3.6c0.3,0.1,0.7,0,0.9-0.2C69.8,69.2,69.8,68.8,69.7,68.5z M31.4,34.9l3.1-3.1l3.5,3.5l-3.1,3.1
			L31.4,34.9z M36,39.5l3.1-3.1l25,24.8L61,64.3L36,39.5z M62.4,65.2l2.7-2.7c0.5,1,1.4,2.9,2.3,4.8C65.4,66.5,63.4,65.7,62.4,65.2z
			"/>
	</g>
</g>
</svg>
