<?xml version="1.0" encoding="utf-8"?>
<!-- Generator: Adobe Illustrator 18.1.1, SVG Export Plug-In . SVG Version: 6.00 Build 0)  -->
<svg version="1.1" id="Layer_1" xmlns="http://www.w3.org/2000/svg" xmlns:xlink="http://www.w3.org/1999/xlink" x="0px" y="0px"
	 width="100px" height="100px" viewBox="0 0 100 100" enable-background="new 0 0 100 100" xml:space="preserve">
<circle fill="#FFFFFF" cx="50" cy="50" r="50"/>
<g>
	<path fill="#808080" d="M66.9,50.4l-2.6-1.8V34c0-0.5-0.4-0.9-0.9-0.9H35.5c-0.5,0-0.9,0.4-0.9,0.9v14.5L32,50.4
		c-0.2,0.2-0.4,0.4-0.4,0.7v15.9c0,0.5,0.4,0.9,0.9,0.9h33.9c0.5,0,0.9-0.4,0.9-0.9V51.2C67.3,50.9,67.1,50.6,66.9,50.4z M64.6,51
		l-0.3,0.1v-0.3L64.6,51z M62.5,52l-13,6.1l-13-6.1V35h26.1V52z M34.6,51.1L34.3,51l0.3-0.2V51.1z M33.4,66.2V52.6L49.1,60
		c0.1,0.1,0.3,0.1,0.4,0.1c0.1,0,0.3,0,0.4-0.1l15.6-7.4v13.6H33.4z"/>
	<path fill="#808080" d="M45.8,47.5c0.3,0.3,0.6,0.9,0.8,1.3l0.4,1.7c0.1,0.4,0.5,0.7,0.9,0.7h2.8c0.4,0,0.8-0.3,0.9-0.7l0.4-1.7
		c0.1-0.4,0.5-1,0.8-1.3c0.2-0.2,1.6-1.7,1.6-3.5c0-2.8-2.3-5.1-5.1-5.1c-2.8,0-5.1,2.3-5.1,5.1C44.2,45.8,45.7,47.3,45.8,47.5z
		 M49.3,40.6c1.8,0,3.3,1.5,3.3,3.3c0,0.9-0.8,2-1.1,2.3c-0.5,0.5-1,1.4-1.2,2.1c0,0,0,0,0,0l-0.2,1h-1.4l-0.2-1c0,0,0,0,0,0
		c-0.2-0.7-0.7-1.6-1.2-2.1c-0.3-0.3-1.1-1.3-1.1-2.3C46,42.1,47.5,40.6,49.3,40.6z"/>
	<path fill="#808080" d="M50.3,51.9h-2c-0.5,0-0.9,0.4-0.9,0.9c0,0.5,0.4,0.9,0.9,0.9h2c0.5,0,0.9-0.4,0.9-0.9
		C51.2,52.3,50.8,51.9,50.3,51.9z"/>
	<path fill="#808080" d="M49.3,54.2L49.3,54.2c-0.6,0-1,0.4-1,0.9c0,0.5,0.4,0.9,0.9,0.9h0.1c0.5,0,0.9-0.4,0.9-0.9
		C50.2,54.7,49.8,54.2,49.3,54.2z"/>
	<path fill="#808080" d="M49.2,37.8L49.2,37.8c0.6,0,1-0.4,1-0.9S49.8,36,49.3,36h-0.1c-0.5,0-0.9,0.4-0.9,0.9S48.7,37.8,49.2,37.8z
		"/>
	<path fill="#808080" d="M43.8,39.3L43.8,39.3c0.6,0,1-0.4,1-0.9c0-0.5-0.4-0.9-0.9-0.9h-0.1c-0.5,0-0.9,0.4-0.9,0.9
		C42.9,38.9,43.3,39.3,43.8,39.3z"/>
	<path fill="#808080" d="M54.7,39.3L54.7,39.3c0.6,0,1-0.4,1-0.9c0-0.5-0.4-0.9-0.9-0.9h-0.1c-0.5,0-0.9,0.4-0.9,0.9
		C53.8,38.9,54.2,39.3,54.7,39.3z"/>
	<path fill="#808080" d="M56.7,43.7L56.7,43.7c0.6,0,1-0.4,1-0.9c0-0.5-0.4-0.9-0.9-0.9h-0.1c-0.5,0-0.9,0.4-0.9,0.9
		C55.8,43.3,56.2,43.7,56.7,43.7z"/>
	<path fill="#808080" d="M42.1,43.7L42.1,43.7c0.6,0,1-0.4,1-0.9c0-0.5-0.4-0.9-0.9-0.9h-0.1c-0.5,0-0.9,0.4-0.9,0.9
		C41.2,43.3,41.6,43.7,42.1,43.7z"/>
</g>
</svg>
