<?xml version="1.0" encoding="utf-8"?>
<!-- Generator: Adobe Illustrator 18.1.1, SVG Export Plug-In . SVG Version: 6.00 Build 0)  -->
<svg version="1.1" id="Layer_1" xmlns="http://www.w3.org/2000/svg" xmlns:xlink="http://www.w3.org/1999/xlink" x="0px" y="0px"
	 width="100px" height="100px" viewBox="0 0 100 100" enable-background="new 0 0 100 100" xml:space="preserve">
<circle fill="#FFFFFF" cx="50" cy="50" r="50"/>
<g>
	<path fill="#808080" stroke="#808080" stroke-width="0.25" stroke-miterlimit="10" d="M72.5,29.3c-0.6-0.6-1.3-0.9-2.1-0.9
		c-0.8,0-1.5,0.3-2.1,0.9l-7.2,7.2c-1,1-1.1,2.6-0.4,3.7l-0.5,0.5c-0.7,0.7-1.1,1.7-1.1,2.7c0,0.7-0.3,1.3-0.8,1.8l-1.2,1.2
		c-0.9-0.5-1.9-0.9-3-1.1c-3-0.6-6.2,0.2-8.4,2c-1.6,1.3-2.4,3.1-2.4,5v0.1H28.5c-0.3,0-0.6,0.3-0.6,0.6v19.8c0,0.3,0.3,0.6,0.6,0.6
		h30.3c0.3,0,0.6-0.3,0.6-0.6V56.3c0.9-1.1,1.5-2.5,1.5-3.9c0-2-1.1-3.9-2.8-5.2l1-1c0.7-0.7,1.1-1.7,1.1-2.7c0-0.7,0.3-1.3,0.8-1.8
		l0.5-0.5c0.5,0.3,1,0.5,1.6,0.5c0.8,0,1.5-0.3,2.1-0.9l7.2-7.2c0.6-0.6,0.9-1.3,0.9-2.1S73,29.8,72.5,29.3z M43.3,53.7v6.9
		c0,0.2,0.1,0.4,0.2,0.5c0.1,0.1,0.3,0.1,0.4,0.1c0,0,0.1,0,0.1,0l1.2-0.2v1.2c0,1.1,0.9,1.9,1.9,1.9s1.9-0.9,1.9-1.9v-1.9l3.1-0.6
		v2.5c0,1.1,0.8,1.9,1.9,1.9s1.9-0.8,1.9-1.9v-3.4c0.9-0.3,1.6-0.8,2.3-1.3v7.8H29.2V53.7L43.3,53.7L43.3,53.7z M46.4,60.7l1.4-0.3
		v1.7c0,0.4-0.3,0.7-0.7,0.7s-0.7-0.3-0.7-0.7V60.7z M53.4,59.4l0.6-0.1c0.2,0,0.4-0.1,0.6-0.1v3c0,0.4-0.3,0.7-0.6,0.7
		s-0.6-0.3-0.6-0.7V59.4z M29.2,72.2v-5.6h29.1v5.6H29.2z M59.7,52.3L59.7,52.3c0,2.7-2.5,5.1-5.8,5.7l-9.3,1.7v-7.5
		c0-2,1.1-3.3,2-4c1.4-1.2,3.5-1.9,5.6-1.9c0.6,0,1.2,0.1,1.8,0.2C57.2,47.2,59.7,49.6,59.7,52.3z M71.6,32.6l-7.2,7.2
		c-0.3,0.3-0.8,0.5-1.2,0.5c-0.2,0-0.5,0-0.7-0.1l0,0c0.2-0.2,0.2-0.6,0-0.9s-0.6-0.2-0.9,0l0,0c-0.3-0.6-0.2-1.4,0.4-1.9l7.2-7.2
		c0.3-0.3,0.8-0.5,1.2-0.5c0.5,0,0.9,0.2,1.2,0.5C72.2,30.8,72.2,31.9,71.6,32.6z"/>
	<path fill="#808080" stroke="#808080" stroke-width="0.25" stroke-miterlimit="10" d="M33.1,64.1c1.1,0,1.9-0.9,1.9-1.9v-5
		c0-1.1-0.9-1.9-1.9-1.9s-1.9,0.9-1.9,1.9v5C31.2,63.2,32,64.1,33.1,64.1z M32.4,57.2c0-0.4,0.3-0.7,0.7-0.7c0.4,0,0.7,0.3,0.7,0.7
		v5c0,0.4-0.3,0.7-0.7,0.7c-0.4,0-0.7-0.3-0.7-0.7V57.2z"/>
	<path fill="#808080" stroke="#808080" stroke-width="0.25" stroke-miterlimit="10" d="M40.1,64.1c1.1,0,1.9-0.9,1.9-1.9v-5
		c0-1.1-0.9-1.9-1.9-1.9c-1.1,0-1.9,0.9-1.9,1.9v5C38.2,63.2,39,64.1,40.1,64.1z M39.4,57.2c0-0.4,0.3-0.7,0.7-0.7
		c0.4,0,0.7,0.3,0.7,0.7v5c0,0.4-0.3,0.7-0.7,0.7s-0.7-0.3-0.7-0.7V57.2z"/>
</g>
</svg>
