<?xml version="1.0" encoding="utf-8"?>
<!-- Generator: Adobe Illustrator 18.1.1, SVG Export Plug-In . SVG Version: 6.00 Build 0)  -->
<svg version="1.1" id="Layer_1" xmlns="http://www.w3.org/2000/svg" xmlns:xlink="http://www.w3.org/1999/xlink" x="0px" y="0px"
	 width="100px" height="100px" viewBox="0 0 100 100" enable-background="new 0 0 100 100" xml:space="preserve">
<circle fill="#FFFFFF" cx="50" cy="50" r="50"/>
<g>
	<g>
		<path fill="#808080" d="M69.4,40.5L50.2,27c-0.3-0.2-0.8-0.2-1,0L30.1,40.5c-0.2,0.1-0.3,0.4-0.3,0.7V66c0,0.5,0.3,0.8,0.8,0.8
			h6.8c0.5,0,0.8-0.3,0.8-0.8V50.5h22.9V66c0,0.5,0.3,0.8,0.8,0.8h6.8c0.4,0,0.8-0.3,0.8-0.8V41.2C69.8,40.9,69.6,40.6,69.4,40.5
			L69.4,40.5z M49.7,28.7l16.5,11.7h-33L49.7,28.7z M68,65.1h-5.1V49.6c0-0.5-0.3-0.8-0.8-0.8H37.4c-0.5,0-0.8,0.3-0.8,0.8v15.5
			h-5.1V42.1H68V65.1z"/>
		<path fill="#808080" d="M41,66.8h17.3V53.6H41L41,66.8L41,66.8z M42.7,55.3h6.1v3.1h1.7v-3.1h6.1v9.8H42.7V55.3z"/>
	</g>
</g>
</svg>
