<?xml version="1.0" encoding="utf-8"?>
<!-- Generator: Adobe Illustrator 18.1.1, SVG Export Plug-In . SVG Version: 6.00 Build 0)  -->
<svg version="1.1" id="Layer_1" xmlns="http://www.w3.org/2000/svg" xmlns:xlink="http://www.w3.org/1999/xlink" x="0px" y="0px"
	 width="100px" height="100px" viewBox="0 0 100 100" enable-background="new 0 0 100 100" xml:space="preserve">
<circle fill="#FFFFFF" cx="50" cy="50" r="50"/>
<g>
	<path fill="#808080" d="M63.3,59.1C63.3,59.1,63.3,59,63.3,59.1l-6-0.9c-1-0.6-1-2.1-1-3.8c1.9-1.9,3-4.6,3-7.6v-0.2
		c1.4-1.3,2.3-3.1,2.3-5.1v-4.5c0-3.7-3-6.8-6.8-6.8H45c-1.4,0-2.6,1-2.9,2.3c-2.6,0.3-4.6,2.5-4.6,5.2v3.8c0,1.9,0.8,3.8,2.3,5.1
		v0.2c0,3,1.2,5.7,3,7.6c0,1.7-0.1,3.2-1,3.8L35.8,59c0,0-0.1,0-0.1,0c-1.3,0.4-2.4,1.2-3.2,2.3c-0.7,1.1-1.1,2.3-1.1,3.6v2.9
		c0,1.2,1.1,2.2,2.4,2.2h31.4c1.3,0,2.4-1,2.4-2.2V65c0-1.3-0.4-2.5-1.1-3.6C65.7,60.2,64.6,59.4,63.3,59.1L63.3,59.1z M49.5,57.3
		c2,0,3.8-0.6,5.4-1.7c0.1,1.3,0.3,2.7,1.4,3.6c-0.6,2.9-3.4,5-6.8,5s-6.2-2.1-6.8-5c1.1-0.9,1.3-2.3,1.4-3.6
		C45.7,56.6,47.6,57.3,49.5,57.3L49.5,57.3z M41.2,46.2c0,0,0-0.1,0-0.1v-3.9c0-1.3,1-2.3,2.3-2.3h12.9c0.4,0,0.7-0.3,0.7-0.7
		c0-0.4-0.3-0.7-0.7-0.7H43.5c-2.1,0-3.7,1.7-3.7,3.7v2.1c-0.6-0.9-0.9-1.9-0.9-2.9v-3.8c0-2.1,1.7-3.8,3.8-3.8
		c0.4,0,0.7-0.3,0.7-0.7c0-0.9,0.7-1.6,1.6-1.6h9.8c2.9,0,5.3,2.4,5.3,5.3v4.5c0,1-0.3,2-0.9,2.9v-2.9c0-0.4-0.3-0.7-0.7-0.7
		s-0.7,0.3-0.7,0.7v5.3c0,5-3.8,9.1-8.4,9.1s-8.4-4.1-8.4-9.1V46.2L41.2,46.2z M66.2,67.9c0,0.4-0.5,0.8-1,0.8H33.9
		c-0.5,0-1-0.4-1-0.8V65c0-1.8,1.1-3.9,3.2-4.5l5.4-0.8c0.8,3.4,4.1,6,8.1,6s7.3-2.5,8.1-6l5.4,0.8c2.1,0.6,3.2,2.7,3.2,4.5V67.9
		L66.2,67.9z"/>
	<path fill="#808080" d="M29.9,61.9h-2.7c-0.2,0-0.4-0.1-0.4-0.3v-1.9c0-1.1,0.7-2.3,1.9-2.7l3.9-0.6c0,0,0,0,0,0c0,0,0,0,0,0
		c0,0,0.1,0,0.1,0c0,0,0,0,0,0c0,0,0,0,0.1,0c0,0,0,0,0,0c0,0,0,0,0,0c0,0,0,0,0,0c0.9-0.5,1.2-1.4,1.3-2.2c0.9,0.6,2,0.9,3.2,0.9
		c1,0,1.9-0.2,2.8-0.7c0.4-0.2,0.5-0.6,0.3-1c-0.2-0.4-0.6-0.5-1-0.3c-0.7,0.3-1.4,0.5-2.1,0.5c-2.8,0-5.2-2.5-5.2-5.7v-3
		c0-0.7,0.6-1.2,1.2-1.2h1.8c0.4,0,0.7-0.3,0.7-0.7c0-0.4-0.3-0.7-0.7-0.7h-1.8c-1.5,0-2.7,1.2-2.7,2.7v0.4
		c-0.1-0.2-0.1-0.5-0.1-0.8v-2.4c0-1.2,1-2.2,2.2-2.2c0.4,0,0.7-0.3,0.7-0.7c0-0.4,0.3-0.8,0.8-0.8h0.9c0.4,0,0.7-0.3,0.7-0.7
		c0-0.4-0.3-0.7-0.7-0.7h-0.9c-1,0-1.8,0.6-2.1,1.5c-1.7,0.3-3,1.8-3,3.6v2.4c0,1.3,0.5,2.5,1.5,3.4v0c0,2,0.8,3.8,2,5.1
		c0,0.9-0.1,1.7-0.5,2l-3.8,0.6c0,0-0.1,0-0.1,0c-2,0.5-3,2.5-3,4.1v1.9c0,0.9,0.8,1.7,1.8,1.7h2.7c0.4,0,0.7-0.3,0.7-0.7
		C30.6,62.2,30.3,61.9,29.9,61.9L29.9,61.9z"/>
	<path fill="#808080" d="M70.7,55.7C70.7,55.7,70.7,55.7,70.7,55.7l-3.8-0.6c-0.4-0.3-0.5-1.1-0.5-2c1.3-1.3,2-3.1,2-5.1v0
		c1-0.9,1.5-2.1,1.5-3.4v-3.8c0-2.1-1.7-3.7-3.7-3.7h-2.3c-0.4,0-0.7,0.3-0.7,0.7c0,0.4,0.3,0.7,0.7,0.7h2.3c1.3,0,2.3,1,2.3,2.3
		v3.8c0,0.3,0,0.5-0.1,0.8v-0.4c0-1.5-1.2-2.7-2.7-2.7h-1.8c-0.4,0-0.7,0.3-0.7,0.7c0,0.4,0.3,0.7,0.7,0.7h1.8
		c0.7,0,1.2,0.6,1.2,1.2v3c0,3.1-2.3,5.7-5.2,5.7c-0.7,0-1.5-0.2-2.1-0.5c-0.4-0.2-0.8,0-1,0.3c-0.2,0.4,0,0.8,0.3,1
		c0.9,0.4,1.8,0.7,2.8,0.7c1.1,0,2.2-0.3,3.2-0.9c0.1,0.9,0.4,1.8,1.3,2.2c0,0,0,0,0,0c0,0,0,0,0,0c0,0,0,0,0,0c0,0,0,0,0.1,0
		c0,0,0,0,0,0c0,0,0.1,0,0.1,0c0,0,0,0,0,0c0,0,0,0,0,0l3.9,0.6c1.2,0.4,1.9,1.6,1.9,2.7v1.9c0,0.1-0.2,0.3-0.4,0.3h-2.7
		c-0.4,0-0.7,0.3-0.7,0.7c0,0.4,0.3,0.7,0.7,0.7h2.7c1,0,1.8-0.8,1.8-1.7v-1.9C73.7,58.1,72.7,56.2,70.7,55.7L70.7,55.7z"/>
</g>
</svg>
