<?xml version="1.0" encoding="utf-8"?>
<!-- Generator: Adobe Illustrator 18.1.1, SVG Export Plug-In . SVG Version: 6.00 Build 0)  -->
<svg version="1.1" id="Layer_1" xmlns="http://www.w3.org/2000/svg" xmlns:xlink="http://www.w3.org/1999/xlink" x="0px" y="0px"
	 width="204px" height="30.2px" viewBox="0 0 204 30.2" enable-background="new 0 0 204 30.2" xml:space="preserve">
<g>
	<path fill="#FF3A1E" d="M52.9,0c-8.3,0-15.1,6.8-15.1,15.1c0,8.3,6.8,15.1,15.1,15.1c8.3,0,15.1-6.8,15.1-15.1
		C68,6.8,61.2,0,52.9,0z"/>
	<path fill="#FF3A1E" d="M18.9,0c-4.2,0-7.6,3.4-7.6,7.6c0,4.2,3.4,7.6,7.6,7.6c4.2,0,7.6-3.4,7.6-7.6C26.4,3.4,23,0,18.9,0z"/>
	<rect x="0" y="0" fill="#001C71" width="7.6" height="30.2"/>
	<path fill="#FF3A1E" d="M98.2,0c-4.2,0-7.6,3.4-7.6,7.6c0,4.2,3.4,7.6,7.6,7.6c4.2,0,7.6-3.4,7.6-7.6C105.8,3.4,102.4,0,98.2,0z"/>
	<rect x="79.3" y="0" fill="#001C71" width="7.6" height="30.2"/>
	<polygon fill="#001C71" points="204,0 181.3,0 181.3,7.6 188.9,7.6 188.9,30.2 196.4,30.2 196.4,7.6 204,7.6 	"/>
	<rect x="151.1" y="0" fill="#001C71" width="18.9" height="6"/>
	<rect x="151.1" y="12.1" fill="#001C71" width="18.9" height="6"/>
	<rect x="151.1" y="24.2" fill="#001C71" width="18.9" height="6"/>
	<polygon fill="#001C71" points="128.4,22.7 128.4,0 120.9,0 120.9,22.7 120.9,30.2 128.5,30.2 136,30.2 136,22.7 	"/>
</g>
</svg>
