<?xml version="1.0" encoding="utf-8"?>
<!-- Generator: Adobe Illustrator 18.1.1, SVG Export Plug-In . SVG Version: 6.00 Build 0)  -->
<svg version="1.1" id="Layer_1" xmlns="http://www.w3.org/2000/svg" xmlns:xlink="http://www.w3.org/1999/xlink" x="0px" y="0px"
	 viewBox="0 0 206 30.5" enable-background="new 0 0 206 30.5" xml:space="preserve">
<g>
	<path fill="#FF3A1E" d="M53.6,0c-8.4,0-15.3,6.8-15.3,15.3c0,8.4,6.8,15.3,15.3,15.3c8.4,0,15.3-6.8,15.3-15.3
		C68.9,6.8,62,0,53.6,0z"/>
	<path fill="#FF3A1E" d="M19.3,0c-4.2,0-7.6,3.4-7.6,7.6c0,4.2,3.4,7.6,7.6,7.6c4.2,0,7.6-3.4,7.6-7.6C26.9,3.4,23.5,0,19.3,0z"/>
	<rect y="0.2" fill="#001C71" width="8" height="30"/>
	<path fill="#FF3A1E" d="M99.4,0c-4.2,0-7.6,3.4-7.6,7.6c0,4.2,3.4,7.6,7.6,7.6c4.2,0,7.6-3.4,7.6-7.6C107,3.4,103.6,0,99.4,0z"/>
	<rect x="80" y="0.2" fill="#001C71" width="8" height="30"/>
	<polygon fill="#001C71" points="206,0.2 183,0.2 183,8.2 191,8.2 191,30.2 199,30.2 199,8.2 206,8.2 	"/>
	<rect x="153" y="0.2" fill="#001C71" width="19" height="6"/>
	<rect x="153" y="12.2" fill="#001C71" width="19" height="6"/>
	<rect x="153" y="24.2" fill="#001C71" width="19" height="6"/>
	<polygon fill="#001C71" points="130,23.2 130,0.2 122,0.2 122,22.9 122,30.2 130,30.2 138,30.2 138,23.2 	"/>
</g>
</svg>
