<?xml version="1.0" standalone="no"?>
<!DOCTYPE svg PUBLIC "-//W3C//DTD SVG 20010904//EN"
 "http://www.w3.org/TR/2001/REC-SVG-20010904/DTD/svg10.dtd">
<svg version="1.0" xmlns="http://www.w3.org/2000/svg"
 width="700.000000pt" height="700.000000pt" viewBox="0 0 700.000000 700.000000"
 preserveAspectRatio="xMidYMid meet">
<metadata>
Created by potrace 1.11, written by Peter Selinger 2001-2013
</metadata>
<g transform="translate(0.000000,700.000000) scale(0.100000,-0.100000)"
fill="#000000" stroke="none">
<path d="M404 3500 l0 -3500 875 2 875 3 0 3498 1 3497 -875 0 -876 0 0 -3500z"/>
<path d="M4565 6990 c-22 -4 -59 -10 -82 -14 -120 -16 -312 -78 -456 -147 -90
-43 -85 -41 -205 -118 -317 -203 -576 -536 -697 -896 -73 -216 -94 -347 -94
-580 -1 -133 2 -168 24 -310 22 -137 85 -325 159 -473 225 -454 649 -798 1136
-922 285 -73 631 -71 901 5 317 89 544 221 798 465 23 22 122 137 154 180 73
96 125 183 187 312 27 57 50 110 50 119 0 8 4 19 8 25 8 8 25 61 53 164 7 25
13 47 14 50 1 3 5 28 10 55 4 28 9 59 11 70 18 93 24 370 10 440 -3 17 -11 59
-17 95 -55 340 -236 698 -481 950 -72 75 -176 167 -218 196 -19 13 -54 37 -78
54 -23 16 -45 30 -48 30 -3 0 -24 13 -47 28 -23 16 -87 49 -142 74 -162 74
-273 108 -465 144 -53 10 -439 13 -485 4z"/>
</g>
</svg>
